# xmcd
#
# Track frame offsets:
#	150
#	21042
#	38655
#	57840
#	71608
#	87913
#	108657
#	124340
#	146274
#	166650
#	183363
#
# Disc length: 2694 seconds
#
# Revision: 1
# Processed by: cddbd v1.5.2PL0 Copyright (c) Steve Scherf et al.
# Submitted via: audiograbber 1.83.01
#
DISCID=8c0a840b
DTITLE=Kings of Clubs - Good News
DYEAR=2010
DGENRE=Blues
TTITLE0=Good News
TTITLE1=Weekend Day
TTITLE2=Stand by Me
TTITLE3=Wag
TTITLE4=Glide
TTITLE5=Money Hole
TTITLE6=Play Right
TTITLE7=Gardner Street
TTITLE8=Get Together
TTITLE9=The Gamer
TTITLE10=Right to be Free
EXTD=
EXTT0=
EXTT1=
EXTT2=
EXTT3=
EXTT4=
EXTT5=
EXTT6=
EXTT7=
EXTT8=
EXTT9=
EXTT10=
PLAYORDER=
